<?xml version="1.0" encoding="UTF-8" standalone="no"?>
<!-- Generator: Adobe Illustrator 26.0.3, SVG Export Plug-In . SVG Version: 6.00 Build 0)  -->
<svg version="1.1" id="Layer_1" x="0px" y="0px" viewBox="0 0 441.60001 41.099998" xml:space="preserve" sodipodi:docname="NaviPartner_rgb.svg" width="441.60001" height="41.099998" inkscape:version="1.2.1 (9c6d41e410, 2022-07-14)" xmlns:inkscape="http://www.inkscape.org/namespaces/inkscape" xmlns:sodipodi="http://sodipodi.sourceforge.net/DTD/sodipodi-0.dtd" xmlns="http://www.w3.org/2000/svg" xmlns:svg="http://www.w3.org/2000/svg"><defs id="defs335"/><sodipodi:namedview id="namedview333" pagecolor="#ffffff" bordercolor="#000000" borderopacity="0.25" inkscape:showpageshadow="2" inkscape:pageopacity="0.0" inkscape:pagecheckerboard="0" inkscape:deskcolor="#d1d1d1" showgrid="false" inkscape:zoom="3.1397174" inkscape:cx="221.3575" inkscape:cy="20.0655" inkscape:window-width="1920" inkscape:window-height="1017" inkscape:window-x="1912" inkscape:window-y="-8" inkscape:window-maximized="1" inkscape:current-layer="Layer_1"/>
<style type="text/css" id="style308">
	.st0{fill:#729FD3;}
	.st1{fill:#123A7E;}
</style>
<path class="st0" d="m 11.42,14.87 21.04,23.39 c 1.63,1.81 3.94,2.84 6.37,2.84 H 48.4 V 0 H 36.99 V 26.22 L 15.93,2.82 C 14.31,1.02 12.01,0 9.59,0 H 0 v 41.1 h 11.42 z" id="path310"/>
<path class="st0" d="M 66.51,41.1 82.43,11.92 98.34,41.1 h 13 L 88.92,0 H 80.98 C 77.86,0 74.99,1.7 73.5,4.44 L 53.51,41.1 Z" id="path312"/>
<path class="st0" d="M 137.46,36.47 157.35,0 h -13 L 128.44,29.18 112.52,0 h -13 l 22.42,41.1 h 7.72 c 3.25,0 6.25,-1.78 7.8,-4.63 z" id="path314"/>
<path class="st0" d="M 172.8,41.1 V 0 h -3.5 C 164.71,0 161,3.72 161,8.3 v 32.8 z" id="path316"/>
<path class="st1" d="m 186.11,0 h 19.9 c 3.05,0 5.51,0.86 7.37,2.58 1.86,1.72 2.79,3.99 2.79,6.81 v 6.05 c 0,3.01 -1,5.45 -2.99,7.31 -2,1.86 -4.62,2.79 -7.87,2.79 H 190.46 V 41.1 h -4.34 V 0 Z m 19.08,21.67 c 2,0 3.6,-0.58 4.81,-1.73 1.21,-1.15 1.82,-2.69 1.82,-4.61 V 9.28 c 0,-1.6 -0.54,-2.91 -1.61,-3.9 -1.08,-1 -2.52,-1.5 -4.31,-1.5 h -15.44 v 17.79 z" id="path318"/>
<path class="st1" d="M 310,3.76 H 295.21 V 0 h 33.92 V 3.76 H 314.34 V 41.1 H 310 Z" id="path320"/>
<path class="st1" d="m 334.72,0 h 4.11 l 22.78,34.23 V 0 h 4.23 v 41.1 h -4.11 L 338.95,7.11 V 41.1 h -4.23 z" id="path322"/>
<path class="st1" d="m 376.14,40.07 c -0.67,-0.68 -1,-1.63 -1,-2.85 V 0 h 27.59 V 3.76 H 379.48 V 21.8 h 14.82 v 3.76 h -14.82 v 11.78 h 23.25 v 3.76 h -23.77 c -1.21,0 -2.15,-0.34 -2.82,-1.03 z" id="path324"/>
<path class="st1" d="M 441.6,15.44 V 9.39 C 441.6,6.57 440.67,4.3 438.81,2.58 436.95,0.86 434.49,0 431.44,0 h -19.9 v 41.1 h 4.34 V 25.54 h 11.73 l 8.97,15.56 h 5.02 l -9.04,-15.68 c 2.42,-0.29 4.44,-1.18 6.05,-2.67 1.99,-1.86 2.99,-4.29 2.99,-7.31 z m -4.34,-0.12 c 0,1.92 -0.61,3.45 -1.82,4.61 -1.21,1.15 -2.82,1.73 -4.81,1.73 H 415.89 V 3.88 h 15.44 c 1.8,0 3.24,0.5 4.31,1.5 1.08,1 1.61,2.3 1.61,3.9 v 6.04 z" id="path326"/>
<path class="st1" d="M 291.63,15.44 V 9.39 C 291.63,6.57 290.7,4.3 288.84,2.58 286.98,0.86 284.52,0 281.47,0 h -19.9 v 41.1 h 4.34 V 25.54 h 11.73 l 8.97,15.56 h 5.02 l -9.04,-15.68 c 2.42,-0.29 4.44,-1.18 6.05,-2.67 1.99,-1.86 2.99,-4.29 2.99,-7.31 z m -4.34,-0.12 c 0,1.92 -0.61,3.45 -1.82,4.61 -1.21,1.15 -2.82,1.73 -4.81,1.73 H 265.92 V 3.88 h 15.44 c 1.8,0 3.24,0.5 4.31,1.5 1.08,1 1.61,2.3 1.61,3.9 v 6.04 z" id="path328"/>
<path class="st1" d="m 248.14,41.1 h 4.63 L 244.1,0 h -6.26 -4.42 -2.35 c -2.28,0 -4.29,1.63 -4.76,3.87 l -7.86,37.23 h 4.63 l 3.3,-15.61 h 18.47 z m -20.95,-19.5 3.32,-16 c 0.18,-0.85 0.93,-1.47 1.8,-1.47 h 1.13 4.42 2.59 l 3.57,17.47 z" id="path330"/>
</svg>